# xmcd CD database file
#
# Track frame offsets:
#	150
#	6170
#	40735
#	73885
#	98440
#	118397
#	140232
#	151960
#	163892
#	207395
#	219162
#	241582
#	267330
#
# Disc length: 4104 seconds
#
# Revision: 0
# Processed by: cddbd v1.5PL3 Copyright (c) Steve Scherf et al.
# Submitted via: CDex 1.51
#
DISCID=b910060d
DTITLE=Paul Riedo and Richard Gianguilio - Music For Ceremony and Celebration
DYEAR=1992
DGENRE=Brass and Organ
TTITLE0=Monteverdi--Toccata from Orfeo
TTITLE1=Handel--Hall of the Conquering Hero from Judas Maccabaeus
TTITLE2=Linek--Ntradas for Trumpets, Horns and Timpani
TTITLE3=Purcell--Sonata for Trumpet and Organ
TTITLE4=Purcell--Suite for Trumpet and Organ
TTITLE5=Lindberg--Gammal Fäbodpsalm
TTITLE6=Boyce--Voluntary
TTITLE7=Anon.--Bicinium
TTITLE8=Roman--Suite Drottingholmsmusiqueen for Trumpet and Organ
TTITLE9=Anon.--Silver Trumpets
TTITLE10=Handel--Overture from The Royal Fireworks
TTITLE11=Truax--Call to Glory
TTITLE12=Anon.--Six Sonatas of the Lisbon Court Trumpet Corps
EXTD=YEAR: 1992
EXTT0=
EXTT1=
EXTT2=
EXTT3=
EXTT4=
EXTT5=
EXTT6=
EXTT7=
EXTT8=
EXTT9=
EXTT10=
EXTT11=
EXTT12=
PLAYORDER=
